# File created by Blade
# Date/Time:  Tue Sep 30 19:12:23 2014
#---------------------------------------------------------
:version 1.10
:name HOM
:units
  mass 1.0
  length 1.000000
  angle deg
:documentation
     Acclaim Skeleton File
:root
   axis xyz
   order TX TY TZ RX RY RZ
   position 0.000000 0.000000 0.000000
   orientation 0 0 0
:bonedata
   begin
      id 1
      name Spine_dum
      direction 0.000000 1.000000 0.000000
      length 7.508948
      axis 0.0 0.0 0.0 xyz
   end
   begin
      id 2
      name LeftUpLeg_dum
      direction 1.000000 0.000000 0.000000
      length 3.000560
      axis 0.0 0.0 0.0 xyz
   end
   begin
      id 3
      name RightUpLeg_dum
      direction -1.000000 0.000000 0.000000
      length 3.000560
      axis 0.0 0.0 0.0 xyz
   end
   begin
      id 4
      name Spine
      direction 0.000000 1.000000 0.000000
      length 0.000000
      axis 0.0 0.0 0.0 xyz
      dof rx ry rz
   end
   begin
      id 5
      name Spine_dum1
      direction 0.000000 1.000000 0.000000
      length 13.861154
      axis 0.0 0.0 0.0 xyz
   end
   begin
      id 6
      name Spine_dum2
      direction 0.000000 1.000000 0.000000
      length 8.204781
      axis 0.0 0.0 0.0 xyz
   end
   begin
      id 7
      name Spine_dum3
      direction 0.000000 1.000000 0.000000
      length 8.204781
      axis 0.0 0.0 0.0 xyz
   end
   begin
      id 8
      name Head
      direction 0.000000 1.000000 0.000000
      length 4.527550
      axis 0.0 0.0 0.0 xyz
      dof rx ry rz
   end
   begin
      id 9
      name LeftShoulder
      direction 1.000000 0.000000 0.000000
      length 6.635956
      axis 0.0 0.0 -90.0 xyz
      dof rx ry rz
   end
   begin
      id 10
      name LeftArm
      direction 1.000000 0.000000 0.000000
      length 10.274218
      axis 0.0 0.0 -90.0 xyz
      dof rx ry rz
   end
   begin
      id 11
      name LeftForeArm
      direction 1.000000 0.000000 0.000000
      length 8.522147
      axis 0.0 0.0 -90.0 xyz
      dof ry rz rx
   end
   begin
      id 12
      name LeftHand
      direction 0.000000 0.000000 0.000000
      length 0.000000
      axis 0.0 0.0 -90.0 xyz
      dof rx ry rz
   end
   begin
      id 13
      name LeftHand_dum1
      direction 0.000000 0.000000 0.000000
      length 0.000000
      axis 0.0 0.0 -90.0 xyz
   end
   begin
      id 14
      name LeftHand_dum2
      direction 1.000000 0.000000 0.000000
      length 3.937000
      axis 0.0 0.0 -90.0 xyz
   end
   begin
      id 15
      name LeftHandThumb1
      direction 0.000000 0.000000 1.000000
      length 3.937000
      axis 0.0 0.0 -90.0 xyz
      dof rx rz ry
   end
   begin
      id 16
      name RightShoulder
      direction -1.000000 0.000000 0.000000
      length 6.635956
      axis 0.0 0.0 90.0 xyz
      dof rx ry rz
   end
   begin
      id 17
      name RightArm
      direction -1.000000 0.000000 0.000000
      length 10.274218
      axis 0.0 0.0 90.0 xyz
      dof rx ry rz
   end
   begin
      id 18
      name RightForeArm
      direction -1.000000 0.000000 0.000000
      length 8.522147
      axis 0.0 0.0 90.0 xyz
      dof ry rz rx
   end
   begin
      id 19
      name RightHand
      direction 0.000000 0.000000 0.000000
      length 0.000000
      axis 0.0 0.0 90.0 xyz
      dof rx ry rz
   end
   begin
      id 20
      name RightHand_dum1
      direction 0.000000 0.000000 0.000000
      length 0.000000
      axis 0.0 0.0 90.0 xyz
   end
   begin
      id 21
      name RightHand_dum2
      direction -1.000000 0.000000 0.000000
      length 3.937000
      axis 0.0 0.0 90.0 xyz
   end
   begin
      id 22
      name RightHandThumb1
      direction 0.000000 0.000000 1.000000
      length 3.937000
      axis 0.0 0.0 90.0 xyz
      dof rx rz ry
   end
   begin
      id 23
      name LeftUpLeg
      direction 0.000000 -1.000000 0.000000
      length 16.490845
      axis 0.0 0.0 0.0 xyz
      dof rx ry rz
   end
   begin
      id 24
      name LeftLeg
      direction 0.000000 -1.000000 0.000000
      length 14.556576
      axis 0.0 0.0 0.0 xyz
      dof rx ry rz
   end
   begin
      id 25
      name LeftFoot
      direction 0.000000 -0.258819 0.965926
      length 4.831116
      axis 15.0 0.0 0.0 xyz
      dof rx ry rz
   end
   begin
      id 26
      name LeftToeBase
      direction 0.000000 0.000000 1.000000
      length 2.952750
      axis 0.0 0.0 0.0 xyz
      dof rx ry rz
   end
   begin
      id 27
      name RightUpLeg
      direction 0.000000 -1.000000 0.000000
      length 16.490845
      axis 0.0 0.0 0.0 xyz
      dof rx ry rz
   end
   begin
      id 28
      name RightLeg
      direction 0.000000 -1.000000 0.000000
      length 14.556576
      axis 0.0 0.0 0.0 xyz
      dof rx ry rz
   end
   begin
      id 29
      name RightFoot
      direction 0.000000 -0.258819 0.965926
      length 4.831116
      axis 15.0 0.0 0.0 xyz
      dof rx ry rz
   end
   begin
      id 30
      name RightToeBase
      direction 0.000000 0.000000 1.000000
      length 2.952750
      axis 0.0 0.0 0.0 xyz
      dof rx ry rz
   end
:hierarchy
   begin
      root Spine_dum LeftUpLeg_dum RightUpLeg_dum
      Spine_dum Spine
      LeftUpLeg_dum LeftUpLeg
      RightUpLeg_dum RightUpLeg
      Spine Spine_dum1 Spine_dum2 Spine_dum3
      Spine_dum1 Head
      Spine_dum2 LeftShoulder
      Spine_dum3 RightShoulder
      LeftShoulder LeftArm
      LeftArm LeftForeArm
      LeftForeArm LeftHand
      LeftHand LeftHand_dum1 LeftHand_dum2
      LeftHand_dum1 LeftHandThumb1
      RightShoulder RightArm
      RightArm RightForeArm
      RightForeArm RightHand
      RightHand RightHand_dum1 RightHand_dum2
      RightHand_dum1 RightHandThumb1
      LeftUpLeg LeftLeg
      LeftLeg LeftFoot
      LeftFoot LeftToeBase
      RightUpLeg RightLeg
      RightLeg RightFoot
      RightFoot RightToeBase
   end

# File created by Blade
# Date/Time:  Thu Sep 25 17:43:48 2014
# Frame Rate: 120.000 fps
#------------------------------------------------------
:FULLY-SPECIFIED
:DEGREES
15
root 41.291163 31.202637 -2.473345 -245.381400 -83.487960 -90.265339
Spine -8.270364 -17.856421 12.127007
Head -30.651301 16.126238 3.977890
LeftShoulder 2.467063 10.564674 30.713608
LeftArm 47.374342 9.825948 -68.829862
LeftForeArm 6.838505 -0.000000 106.585430
LeftHand -23.385020 0.000000 -11.394094
LeftHandThumb1 -26.253704 0.000000 33.147579
RightShoulder -14.905301 0.307650 -27.962381
RightArm -40.078341 -23.812634 96.887984
RightForeArm -18.451410 -0.000000 40.626644
RightHand -4.124802 -0.000000 -14.470960
RightHandThumb1 -24.326973 -0.000000 -32.862282
LeftUpLeg 5.610324 -2.646199 4.351815
LeftLeg 17.903133 -0.000000 -0.000000
LeftFoot -37.496100 -2.872177 151.434066
LeftToeBase 90.278632 -0.000000 -0.000000
RightUpLeg -80.559675 2.163307 1.072576
RightLeg 71.334632 -0.000000 -0.000000
RightFoot 0.184138 -11.281403 1.354054
RightToeBase -11.050062 -0.000000 0.000000
16
root 40.469059 31.311634 -2.515105 -244.894255 -83.039126 -91.020706
Spine -8.180926 -18.594960 13.156625
Head -30.245219 16.974981 3.405330
LeftShoulder 2.556933 10.040100 30.817606
LeftArm 46.464431 10.273125 -69.430847
LeftForeArm 7.069486 -0.000000 108.465380
LeftHand -22.978599 -0.000000 -12.039006
LeftHandThumb1 -26.253704 0.000000 33.147579
RightShoulder -14.865096 0.529952 -28.460368
RightArm -39.886431 -22.913456 95.664309
RightForeArm -19.202980 -0.000000 41.281939
RightHand -3.751619 -0.000000 -14.202007
RightHandThumb1 -24.326973 -0.000000 -32.862282
LeftUpLeg 8.098139 -0.008455 5.468631
LeftLeg 15.106724 -0.000000 -0.000000
LeftFoot -43.659225 -5.888610 149.595908
LeftToeBase 80.054772 -0.000000 -0.000000
RightUpLeg -79.622154 2.615437 1.703412
RightLeg 67.257481 -0.000000 -0.000000
RightFoot 1.935908 -10.332494 2.143311
RightToeBase -12.361886 -0.000000 0.000000
17
root 39.660617 31.396303 -2.549966 -246.139469 -82.681592 -89.948005
Spine -8.203179 -19.338895 14.205062
Head -29.881416 17.554129 2.839774
LeftShoulder 2.722538 9.897064 30.573359
LeftArm 45.995052 11.006807 -69.690941
LeftForeArm 6.577441 -0.000000 109.832202
LeftHand -22.642167 0.000000 -12.507417
LeftHandThumb1 -26.253704 0.000000 33.147579
RightShoulder -15.143088 0.374968 -28.801800
RightArm -39.143646 -22.299917 94.290692
RightForeArm -20.088831 -0.000000 42.049544
RightHand -3.482913 0.000000 -14.133934
RightHandThumb1 -24.326973 -0.000000 -32.862282
LeftUpLeg 10.171814 1.320710 6.675930
LeftLeg 13.413547 -0.000000 -0.000000
LeftFoot -46.832807 -9.501302 145.815623
LeftToeBase 60.853931 -0.000000 -0.000000
RightUpLeg -78.700964 2.758013 2.416919
RightLeg 63.342210 -0.000000 -0.000000
RightFoot 3.654921 -9.333773 2.845218
RightToeBase -12.580916 -0.000000 0.000000
18
root 38.854088 31.463761 -2.561442 -246.681250 -82.667374 -89.582414
Spine -8.119899 -20.133173 14.716795
Head -29.775544 18.078567 2.543495
LeftShoulder 2.679888 9.583886 29.957116
LeftArm 45.384177 12.274492 -69.817098
LeftForeArm 5.396661 -0.000000 110.422819
LeftHand -21.727751 -0.000000 -13.423845
LeftHandThumb1 -26.253704 0.000000 33.147579
RightShoulder -15.502420 0.359462 -28.774341
RightArm -38.278837 -21.909746 92.932584
RightForeArm -20.543293 0.000000 42.839433
RightHand -3.562593 0.000000 -14.372181
RightHandThumb1 -24.326973 -0.000000 -32.862282
LeftUpLeg 11.563484 1.771257 7.410153
LeftLeg 13.652542 -0.000000 -0.000000
LeftFoot -45.000671 -14.462177 139.406856
LeftToeBase 36.087657 -0.000000 -0.000000
RightUpLeg -77.734811 2.682962 2.954972
RightLeg 59.675655 -0.000000 -0.000000
RightFoot 5.443064 -8.500064 2.368142
RightToeBase -12.942733 -0.000000 0.000000
19
root 38.059665 31.519350 -2.527626 -248.131551 -83.184974 -88.128596
Spine -8.286980 -21.129269 14.806247
Head -29.826833 18.571416 2.266513
LeftShoulder 2.510923 9.292619 28.836187
LeftArm 44.713359 14.001252 -69.773057
LeftForeArm 4.059439 0.000000 110.306351
LeftHand -21.150343 -0.000000 -14.677481
LeftHandThumb1 -26.253704 0.000000 33.147579
RightShoulder -15.715815 0.462946 -28.402460
RightArm -37.441705 -21.583618 91.547875
RightForeArm -20.552240 -0.000000 43.696243
RightHand -3.647468 -0.000000 -14.989068
RightHandThumb1 -24.326973 -0.000000 -32.862282
LeftUpLeg 11.495164 -0.766112 7.060200
LeftLeg 16.653780 -0.000000 -0.000000
LeftFoot -45.021624 -13.405703 141.980221
LeftToeBase 31.736165 -0.000000 -0.000000
RightUpLeg -76.950527 2.067946 3.237265
RightLeg 56.392674 -0.000000 -0.000000
RightFoot 6.809793 -7.774004 1.660909
RightToeBase -13.713789 -0.000000 0.000000
20
root 37.274152 31.548712 -2.478398 -251.042025 -83.941493 -85.248317
Spine -8.450700 -22.434277 14.675724
Head -29.755167 19.319323 2.016266
LeftShoulder 2.080882 9.136370 27.349653
LeftArm 44.086331 16.073312 -69.545848
LeftForeArm 2.974984 -0.000000 109.333449
LeftHand -20.850251 -0.000000 -15.873507
LeftHandThumb1 -26.253704 0.000000 33.147579
RightShoulder -15.574920 0.782533 -27.959854
RightArm -36.606141 -21.240724 90.384281
RightForeArm -20.191096 -0.000000 44.517162
RightHand -3.729094 -0.000000 -15.829736
RightHandThumb1 -24.326973 -0.000000 -32.862282
LeftUpLeg 11.313077 -2.729546 6.329418
LeftLeg 20.203990 -0.000000 -0.000000
LeftFoot -43.498918 -13.670681 144.773539
LeftToeBase 32.382017 -0.000000 -0.000000
RightUpLeg -76.126671 1.116154 3.510847
RightLeg 53.528872 -0.000000 -0.000000
RightFoot 7.472608 -7.433512 1.890831
RightToeBase -14.109086 -0.000000 0.000000
21
root 36.494183 31.548849 -2.402021 -255.476728 -84.895859 -80.963654
Spine -8.399956 -23.356891 14.188063
Head -29.840298 19.718655 1.764376
LeftShoulder 2.040650 9.024594 25.775635
LeftArm 43.430084 18.056688 -69.790979
LeftForeArm 2.009631 -0.000000 107.521498
LeftHand -20.399816 0.000000 -17.874602
LeftHandThumb1 -26.253704 0.000000 33.147579
RightShoulder -15.682381 1.146180 -27.530279
RightArm -35.843606 -21.079690 89.502694
RightForeArm -19.564081 -0.000000 45.387798
RightHand -3.903361 -0.000000 -16.476631
RightHandThumb1 -24.326973 -0.000000 -32.862282
LeftUpLeg 10.792859 -2.823418 5.441974
LeftLeg 25.255093 -0.000000 -0.000000
LeftFoot -40.567342 -13.507905 150.155252
LeftToeBase 43.546837 -0.000000 -0.000000
RightUpLeg -75.220087 -0.122591 3.733902
RightLeg 51.266092 -0.000000 -0.000000
RightFoot 7.581519 -7.107822 3.075637
RightToeBase -14.134992 -0.000000 0.000000
22
root 35.729149 31.525010 -2.342848 -263.457610 -85.656305 -73.183635
Spine -8.179607 -24.179519 13.799770
Head -30.197986 19.835641 1.357395
LeftShoulder 2.122789 9.113260 24.148722
LeftArm 42.877527 19.967672 -70.121701
LeftForeArm 1.950964 -0.000000 104.951372
LeftHand -20.169562 -0.000000 -19.500502
LeftHandThumb1 -26.253704 0.000000 33.147579
RightShoulder -15.819361 1.669340 -27.285297
RightArm -34.999952 -21.155953 88.960644
RightForeArm -18.883475 -0.000000 46.123301
RightHand -4.154746 -0.000000 -17.018439
RightHandThumb1 -24.326973 -0.000000 -32.862282
LeftUpLeg 10.075982 -2.515478 4.873931
LeftLeg 30.855399 -0.000000 -0.000000
LeftFoot -37.574952 -16.463688 153.294898
LeftToeBase 42.171933 -0.000000 -0.000000
RightUpLeg -74.214765 -1.423898 4.145663
RightLeg 49.495510 -0.000000 -0.000000
RightFoot 7.731355 -6.834066 3.957696
RightToeBase -13.676010 -0.000000 0.000000
23
root 34.971032 31.475935 -2.305004 -273.447898 -86.242822 -63.500258
Spine -7.697661 -24.696037 13.279654
Head -30.789620 19.729806 0.942190
LeftShoulder 2.323450 9.589412 22.592394
LeftArm 42.628387 21.605088 -70.520848
LeftForeArm 2.122763 0.000000 101.518493
LeftHand -19.754323 -0.000000 -21.074895
LeftHandThumb1 -26.253704 0.000000 33.147579
RightShoulder -16.084508 2.176127 -27.112215
RightArm -33.971231 -21.435218 88.645846
RightForeArm -18.535526 0.000000 46.879145
RightHand -4.011509 -0.000000 -17.195716
RightHandThumb1 -24.326973 -0.000000 -32.862282
LeftUpLeg 9.269480 -2.407935 4.465764
LeftLeg 36.976753 -0.000000 -0.000000
LeftFoot -34.803197 -10.599337 164.393593
LeftToeBase 17.811994 -0.000000 -0.000000
RightUpLeg -73.094691 -2.635615 4.633994
RightLeg 48.388231 -0.000000 -0.000000
RightFoot 8.169610 -5.987802 4.125617
RightToeBase -12.827264 -0.000000 0.000000
24
root 34.202788 31.412283 -2.261502 -284.813322 -86.755554 -52.525766
Spine -7.159169 -24.903689 12.678515
Head -31.574699 19.500030 0.474078
LeftShoulder 2.673337 10.211172 20.797963
LeftArm 42.481702 22.989595 -70.762922
LeftForeArm 2.798418 -0.000000 97.209644
LeftHand -19.309508 -0.000000 -23.005707
LeftHandThumb1 -26.253704 0.000000 33.147579
RightShoulder -16.310294 2.498006 -26.898911
RightArm -32.624063 -22.096366 88.344998
RightForeArm -18.590542 0.000000 47.950307
RightHand -4.005657 -0.000000 -17.278454
RightHandThumb1 -24.326973 -0.000000 -32.862282
LeftUpLeg 8.244087 -2.893276 4.001518
LeftLeg 43.244711 -0.000000 -0.000000
LeftFoot -26.860114 13.530348 196.219137
LeftToeBase 7.218076 -0.000000 -0.000000
RightUpLeg -71.803349 -3.826342 5.105355
RightLeg 47.844388 -0.000000 -0.000000
RightFoot 8.673185 -4.488178 4.158472
RightToeBase -12.122546 -0.000000 0.000000
